<?xml version="1.0" encoding="UTF-8"?>
<svg width="157px" height="200px" viewBox="0 0 157 200" version="1.1" xmlns="http://www.w3.org/2000/svg" xmlns:xlink="http://www.w3.org/1999/xlink">
    <!-- Generator: Sketch 51.2 (57519) - http://www.bohemiancoding.com/sketch -->
    <title>sflogo</title>
    <desc>Created with Sketch.</desc>
    <defs></defs>
    <g id="Page-1" stroke="none" stroke-width="1" fill="none" fill-rule="evenodd">
        <g id="sflogo">
            <path d="M144.92352,90.5986868 C146.614935,89.2133385 148.180775,87.6477404 149.574911,85.8915926 C154.556898,79.5880005 156.809555,71.7394103 155.884402,63.7929703 L155.843398,63.4247457 C150.312983,22.2247972 111.441189,0 77.6743937,0 C39.4894167,0 0,27.3464658 0,73.1196086 C0,86.2572422 3.84668794,98.4421269 11.4349911,109.393588 C9.73845049,110.778937 8.17773566,112.33681 6.78872509,114.098107 C1.79905059,120.409424 -0.440793022,128.25029 0.474108774,136.19158 L0.520238276,136.567529 C6.0532158,177.764903 44.9147588,200 78.6892427,200 C116.87422,200 156.363636,172.640659 156.363636,126.867516 C156.363636,113.729883 152.514386,101.555298 144.92352,90.5986868" id="Fill-1" fill="#2071C5"></path>
            <path d="M30.7746812,99.7299328 C23.9914472,91.1294181 20.6951872,81.8771874 20.6951872,71.4524021 C20.6951872,37.8436208 49.5393952,17.7606178 77.4300331,17.7606178 C102.325945,17.7606178 130.912432,34.0935827 134.845264,64.3369453 C135.10814,66.6847255 134.45095,69.0244929 132.9974,70.9235506 C131.412412,72.9801954 129.110957,74.2782855 126.538895,74.5774338 C126.26571,74.6014725 125.99768,74.6148274 125.732226,74.6148274 L125.727072,74.6148274 C120.724695,74.6148274 116.366621,70.9449183 116.003234,66.3535256 C113.428594,48.9788834 96.2308281,35.8777889 76.0048323,35.8777889 C55.9412012,35.8777889 39.6119569,51.5243152 39.6119569,70.7579506 C39.6119569,77.4513946 41.6402264,83.2794453 45.8075856,88.5733024 C51.4001456,95.6620496 85.1771462,118.378626 85.5173388,118.602988 L85.71063,118.725852 C90.5635288,121.762742 91.5789522,126.17518 91.5789522,129.342947 C91.5789522,136.153914 86.1616429,141.698842 79.4943836,141.698842 C72.8322787,141.698842 67.4046606,136.153914 67.4123922,129.262818 L67.4123922,128.643154 L66.909835,128.311954 C58.3354354,122.612109 37.6403862,108.431944 30.7746812,99.7299328 Z M124.818222,101.049419 C131.600844,109.650305 134.901961,118.897592 134.901961,129.314813 C134.901961,162.925043 106.0552,183.011583 78.1696547,183.011583 C53.2785648,183.011583 24.6920796,166.675243 20.7518709,136.433248 C20.4890185,134.090709 21.1461494,131.753512 22.6021455,129.857043 C24.1844138,127.794967 26.4933916,126.491479 29.0652217,126.186976 C29.3332281,126.168278 29.6012344,126.154923 29.8692408,126.154923 C34.878898,126.154923 39.2391552,129.827661 39.594779,134.421923 C42.1769171,151.794643 59.3705553,164.898973 79.589573,164.898973 C99.6565486,164.898973 115.98432,149.249101 115.98432,130.014637 C115.98432,123.318233 113.956234,117.48726 109.781519,112.201188 C104.163694,105.088096 70.4155094,82.3945796 70.0701935,82.1621954 L69.8794967,82.0446678 C65.0399205,78.9942917 64.0245887,74.5870057 64.0245887,71.4217731 C64.0245887,64.613184 69.4414094,59.0733591 76.1054904,59.0733591 C82.7669944,59.0733591 88.1863921,64.613184 88.1812381,71.5072477 L88.1812381,72.1296099 L88.6811731,72.458153 C99.3395795,79.5338504 118.20568,92.6568782 124.818222,101.049419 Z" id="Combined-Shape" fill="#FFFFFF"></path>
        </g>
    </g>
</svg>