<?xml version="1.0" standalone="no"?>
<!DOCTYPE svg PUBLIC "-//W3C//DTD SVG 20010904//EN"
 "http://www.w3.org/TR/2001/REC-SVG-20010904/DTD/svg10.dtd">
<svg version="1.0" xmlns="http://www.w3.org/2000/svg"
 width="472.000000pt" height="101.000000pt" viewBox="0 0 472.000000 101.000000"
 preserveAspectRatio="xMidYMid meet">

<g transform="translate(0.000000,101.000000) scale(0.100000,-0.100000)"
fill="#000000" stroke="none">
<path d="M243 949 c-111 -14 -193 -93 -201 -193 -10 -123 37 -179 229 -277 76
-39 148 -82 159 -96 63 -81 36 -190 -56 -229 -47 -20 -149 -17 -214 6 -79 28
-108 26 -116 -6 -9 -34 15 -56 81 -78 80 -27 191 -32 260 -11 168 48 230 244
118 374 -23 28 -73 60 -173 111 -80 41 -150 84 -164 101 -36 42 -42 90 -20
136 36 73 130 99 244 68 36 -10 81 -19 100 -19 31 -1 35 2 38 27 5 38 -9 52
-71 70 -63 19 -144 25 -214 16z"/>
<path d="M711 944 c-21 -15 -21 -19 -21 -443 0 -449 0 -451 45 -451 43 0 45
12 45 272 l0 249 53 24 c89 42 179 27 214 -37 16 -29 18 -63 21 -258 2 -138 7
-230 14 -237 15 -18 43 -16 63 4 15 14 16 42 13 247 -5 283 -15 319 -110 367
-51 26 -167 26 -225 -1 l-43 -19 0 132 c0 73 -4 137 -8 143 -13 19 -39 23 -61
8z"/>
<path d="M3771 944 c-21 -15 -21 -19 -21 -443 0 -319 3 -430 12 -439 16 -16
53 -15 67 2 8 9 10 135 9 446 -3 432 -3 433 -24 441 -14 5 -29 2 -43 -7z"/>
<path d="M4512 927 c-29 -31 -30 -95 -2 -125 43 -45 117 -36 145 19 21 40 19
63 -11 98 -34 40 -98 44 -132 8z m128 -37 c15 -35 6 -66 -25 -86 -57 -37 -132
24 -103 83 28 59 104 60 128 3z"/>
<path d="M4550 866 c0 -25 5 -46 10 -46 6 0 10 8 10 18 1 16 1 16 11 0 17 -29
25 -21 25 25 -1 38 -3 42 -28 45 -27 3 -28 2 -28 -42z m35 25 c3 -5 1 -12 -5
-16 -5 -3 -10 1 -10 9 0 18 6 21 15 7z"/>
<path d="M2926 924 c-14 -13 -16 -67 -16 -433 0 -439 0 -441 45 -441 42 0 45
14 45 227 l0 203 175 0 c164 0 175 1 185 20 8 14 8 26 0 40 -10 19 -21 20
-185 20 l-175 0 0 145 0 145 171 0 c98 0 178 4 190 10 21 12 25 50 7 68 -9 9
-71 12 -219 12 -175 0 -210 -2 -223 -16z"/>
<path d="M3492 914 c-24 -16 -28 -44 -12 -75 12 -22 68 -27 88 -7 18 18 14 63
-6 81 -23 21 -41 21 -70 1z"/>
<path d="M1392 679 c-59 -23 -79 -48 -61 -80 12 -24 44 -23 119 6 30 11 63 15
99 12 46 -3 59 -9 83 -36 23 -26 28 -40 28 -85 l0 -53 -107 -5 c-193 -10 -263
-63 -263 -201 0 -81 25 -122 95 -157 44 -22 63 -25 155 -25 99 0 167 13 198
38 19 15 17 468 -2 505 -19 37 -55 68 -98 87 -54 22 -180 19 -246 -6z m268
-429 c0 -73 -3 -100 -12 -101 -7 0 -35 -4 -63 -9 -27 -4 -75 -4 -105 1 -70 11
-100 42 -100 102 1 81 45 107 183 107 l97 0 0 -100z"/>
<path d="M2015 690 c-32 -13 -75 -64 -85 -101 -6 -18 -10 -140 -10 -271 0
-202 2 -239 16 -252 19 -19 48 -21 62 -3 7 8 12 104 14 261 l3 248 29 25 c27
23 34 24 93 18 61 -6 63 -6 74 19 10 22 9 29 -6 46 -15 17 -30 20 -94 19 -42
0 -85 -4 -96 -9z"/>
<path d="M2410 684 c-46 -20 -77 -50 -103 -99 -16 -33 -21 -64 -25 -170 -6
-180 6 -236 67 -296 56 -57 108 -74 201 -65 74 6 153 31 170 51 15 18 9 45
-12 58 -12 8 -32 6 -73 -7 -32 -10 -80 -18 -109 -18 -97 -1 -142 43 -153 148
l-6 54 169 0 c213 0 214 0 214 103 0 92 -13 139 -52 183 -48 55 -95 74 -180
74 -42 -1 -88 -7 -108 -16z m180 -82 c43 -21 70 -72 70 -129 l0 -43 -146 0
-147 0 6 50 c3 28 14 64 24 80 33 57 124 77 193 42z"/>
<path d="M3492 688 c-9 -9 -12 -85 -12 -309 0 -257 2 -300 16 -313 19 -20 48
-21 63 -2 8 9 11 103 9 322 l-3 309 -30 3 c-17 2 -36 -3 -43 -10z"/>
<path d="M4120 684 c-46 -20 -77 -50 -103 -99 -18 -33 -22 -62 -25 -178 -6
-201 19 -275 111 -328 36 -20 55 -24 127 -24 89 1 178 23 201 51 9 11 9 21 1
39 -14 29 -38 31 -102 9 -60 -21 -138 -21 -179 0 -40 21 -70 83 -71 144 l0 42
170 0 c208 0 210 1 210 108 0 87 -14 134 -52 178 -48 55 -95 74 -180 74 -42
-1 -88 -7 -108 -16z m173 -78 c44 -18 67 -57 74 -122 l6 -54 -148 0 -148 0 6
49 c3 28 13 63 21 79 28 55 118 78 189 48z"/>
</g>
</svg>
